#!OML:ASF Y:\EmotionMaleHayes\Project 1\Capture day 1\Session 1\Male1.ASF
:FULLY-SPECIFIED
:DEGREES
1605
root -24.2768 16.7137 9.31996 534.784 -18.587 544.47
lowerback 7.01089 4.17173 7.07341
upperback 2.28008 5.88955 1.37686
thorax -0.976123 2.88578 -2.94061
lowerneck -20.7095 -1.65817 1.97243
upperneck 27.4391 -6.11986 6.29976
head 12.8015 -1.9956 0.964575
rclavicle 1.97542e-014 2.00773e-014
rhumerus -22.2451 19.2737 -84.4924
rradius 68.5303
rwrist -8.41152
rhand -11.1894 -28.3652
rfingers 7.12502
rthumb 14.838 -57.8139
lclavicle 1.97542e-014 2.00773e-014
lhumerus -47.7104 8.34869 82.286
lradius 19.0202
lwrist -28.4604
lhand -1.03461 -26.411
lfingers 7.12502
lthumb 24.599 2.02841
rfemur 14.7451 3.39205 32.8104
rtibia 9.46932
rfoot -17.7606 12.0902
rtoes 28.3514
lfemur -16.672 -6.32334 1.46718
ltibia 14.4697
lfoot -11.2821 10.9548
ltoes -16.6999
1606
root -24.3677 16.7009 9.20415 535.126 -17.7223 543.974
lowerback 6.88898 4.23148 6.44707
upperback 2.20501 5.93394 1.23206
thorax -1.0333 2.91035 -2.74402
lowerneck -20.6149 -1.65348 1.77006
upperneck 27.3318 -6.09682 6.49846
head 12.7521 -1.9889 1.07836
rclavicle 9.69075e-015 8.54774e-015
rhumerus -22.1182 19.82 -84.3332
rradius 68.6901
rwrist -9.09358
rhand -12.2891 -28.9721
rfingers 7.12502
rthumb 13.7784 -58.4958
lclavicle 9.69075e-015 8.54774e-015
lhumerus -48.1121 7.56231 83.07
lradius 19.0812
lwrist -28.4165
lhand -2.18952 -26.3451
lfingers 7.12502
lthumb 23.4916 2.24058
rfemur 15.1191 4.07776 32.2123
rtibia 9.61531
rfoot -17.7798 12.4253
rtoes 29.6563
lfemur -16.732 -7.65893 1.42929
ltibia 12.2992
lfoot -11.1377 10.0136
ltoes -17.0914
1607
root -24.4711 16.6799 9.09338 535.085 -16.9166 544.322
lowerback 6.91265 4.20157 6.78711
upperback 2.14074 5.91887 1.32466
thorax -1.08862 2.89758 -2.83893
lowerneck -20.5849 -1.53803 2.10678
upperneck 27.357 -5.81107 5.82542
head 12.7062 -1.91165 0.814325
rclavicle -1.13059e-014 -1.49089e-014
rhumerus -21.6995 19.3474 -84.4348
rradius 68.1404
rwrist -8.78557
rhand -12.4274 -29.1476
rfingers 7.12502
rthumb 13.6451 -58.6804
lclavicle -1.13059e-014 -1.49089e-014
lhumerus -48.5077 6.52532 83.9877
lradius 19.451
lwrist -27.3421
lhand -1.68141 -25.9833
lfingers 7.12502
lthumb 23.9789 2.5391
rfemur 15.5746 4.32356 32.3756
rtibia 10.0629
rfoot -18.251 12.9968
rtoes 30.5925
lfemur -16.8312 -8.71655 2.17015
ltibia 10.5131
lfoot -10.9059 8.72388
ltoes -18.5176
1608
root -24.565 16.6688 8.98071 535.242 -15.836 544.43
lowerback 6.8877 4.32781 6.78882
upperback 2.03358 6.09415 1.35821
thorax -1.17286 2.98079 -2.8185
lowerneck -20.5718 -1.50614 1.98492
upperneck 27.3168 -5.69777 5.78256
head 12.6844 -1.88046 0.837927
rclavicle 3.1234e-014 -3.97569e-016
rhumerus -21.5157 18.9468 -84.4273
rradius 67.8839
rwrist -8.56192
rhand -11.8884 -28.8553
rfingers 7.12502
rthumb 14.1645 -58.3524
lclavicle 3.1234e-014 -3.97569e-016
lhumerus -48.9078 5.3722 84.7984
lradius 19.8177
lwrist -26.6873
lhand -0.977762 -25.8819
lfingers 7.12502
lthumb 24.6535 2.55011
rfemur 15.8479 4.83514 32.4448
rtibia 10.1368
rfoot -18.5225 13.089
rtoes 29.2839
lfemur -16.8737 -9.73875 2.83152
ltibia 8.8192
lfoot -10.8666 7.50526
ltoes -19.9996
1609
root -24.668 16.6523 8.86853 535.356 -15.2294 544.765
lowerback 6.7409 4.26407 7.11725
upperback 1.93744 6.02446 1.4154
thorax -1.16932 2.94378 -2.92708
lowerneck -20.59 -1.51325 1.80441
upperneck 27.3312 -5.67039 5.84212
head 12.6995 -1.88045 0.895288
rclavicle -9.50191e-014 -3.20043e-014
rhumerus -21.408 18.8186 -84.39
rradius 67.7159
rwrist -8.63241
rhand -11.8334 -28.7104
rfingers 7.12502
rthumb 14.2175 -58.2038
lclavicle -9.50191e-014 -3.20043e-014
lhumerus -49.2032 4.64849 85.353
lradius 20.0145
lwrist -26.6184
lhand -0.128413 -25.963
lfingers 7.12502
lthumb 25.4674 2.35539
rfemur 15.8479 4.83514 32.4448
rtibia 10.1368
rfoot -18.5225 13.089
rtoes 29.2839
lfemur -17.2872 -10.9165 3.60387
ltibia 7.60948
lfoot -10.8719 5.75225
ltoes -20.1448
1610
root -24.7439 16.6282 8.74366 535.554 -14.0685 544.836
lowerback 6.55217 4.39813 6.73134
upperback 1.88653 6.16837 1.55253
thorax -1.16037 3.01445 -2.57055
lowerneck -20.7681 -1.43945 1.82996
upperneck 27.5249 -5.49632 5.53069
head 12.7949 -1.83262 0.800889
rclavicle -7.22582e-014 5.1684e-015
rhumerus -21.2924 18.7631 -84.3425
rradius 67.5623
rwrist -8.6282
rhand -12.2399 -29.0127
rfingers 7.12502
rthumb 13.8258 -58.5332
lclavicle -7.22582e-014 5.1684e-015
lhumerus -49.3815 4.28873 85.81
lradius 20.0318
lwrist -26.7897
lhand 0.432215 -26.0935
lfingers 7.12502
lthumb 26.0043 2.14709
rfemur 15.8479 4.83514 32.4448
rtibia 10.1368
rfoot -18.5225 13.089
rtoes 29.2839
lfemur -17.2256 -11.173 4.17322
ltibia 6.45415
lfoot -10.7204 3.90889
ltoes -20.2775
1611
root -24.85 16.6077 8.62957 535.754 -13.5593 544.288
lowerback 6.506 4.3371 6.18829
upperback 1.88664 6.05686 1.43386
thorax -1.19013 2.96279 -2.38722
lowerneck -20.8496 -1.40239 1.76716
upperneck 27.4488 -5.36923 5.43205
head 12.7738 -1.79217 0.795304
rclavicle 3.80548e-014 3.37934e-015
rhumerus -21.1116 18.3599 -84.3217
rradius 67.2176
rwrist -8.4452
rhand -12.0955 -29.2091
rfingers 7.12502
rthumb 13.9649 -58.72
lclavicle 3.80548e-014 3.37934e-015
lhumerus -49.4464 3.67878 86.4567
lradius 20.042
lwrist -26.6376
lhand 0.769179 -26.1819
lfingers 7.12502
lthumb 26.3269 2.01096
rfemur 15.8479 4.83514 32.4448
rtibia 10.1368
rfoot -18.5225 13.089
rtoes 29.2839
lfemur -17.3938 -11.9837 3.58026
ltibia 5.75539
lfoot -10.641 2.37151
ltoes -21.6019
1612
root -24.9533 16.585 8.51623 536.07 -12.9928 543.744
lowerback 6.36757 4.33497 5.67842
upperback 1.85962 6.02306 1.26134
thorax -1.17977 2.9522 -2.27382
lowerneck -20.8458 -1.39017 1.80002
upperneck 27.2293 -5.29498 5.34817
head 12.6773 -1.76711 0.77064
rclavicle 4.06266e-015 -8.74653e-015
rhumerus -20.9384 17.81 -84.3544
rradius 66.78
rwrist -8.72286
rhand -11.9492 -28.747
rfingers 7.12502
rthumb 14.1059 -58.2482
lclavicle 4.06266e-015 -8.74653e-015
lhumerus -49.425 2.762 87.2141
lradius 20.1339
lwrist -26.0878
lhand 1.27348 -26.1332
lfingers 7.12502
lthumb 26.8096 1.98653
rfemur 15.8479 4.83514 32.4448
rtibia 10.1368
rfoot -18.5225 13.089
rtoes 29.2839
lfemur -17.6881 -12.1749 2.86781
ltibia 5.46056
lfoot -10.8329 0.639069
ltoes -22.1198
1613
root -25.0511 16.5618 8.40031 536.353 -12.3961 543.47
lowerback 6.20247 4.32933 5.32875
upperback 1.80107 5.99348 1.17725
thorax -1.17901 2.94097 -2.15657
lowerneck -20.8952 -1.4095 1.80145
upperneck 27.1275 -5.27456 5.25467
head 12.6414 -1.76886 0.737975
rclavicle 2.29099e-014 -4.57205e-015
rhumerus -21.0893 17.4602 -84.3579
rradius 66.7667
rwrist -9.11954
rhand -11.9608 -28.5604
rfingers 7.12502
rthumb 14.0948 -58.0624
lclavicle 2.29099e-014 -4.57205e-015
lhumerus -49.4238 2.13462 87.6896
lradius 20.1997
lwrist -26.0491
lhand 1.63801 -26.0761
lfingers 7.12502
lthumb 27.1584 1.98968
rfemur 15.8479 4.83514 32.4448
rtibia 10.1368
rfoot -18.5225 13.089
rtoes 29.2839
lfemur -17.9866 -11.8087 2.34358
ltibia 5.52556
lfoot -10.9244 -1.19879
ltoes -20.6801
1614
root -25.1445 16.5364 8.28425 536.419 -11.7311 543.472
lowerback 6.23958 4.34659 5.18438
upperback 1.7473 6.01465 1.19744
thorax -1.27112 2.94882 -2.06459
lowerneck -21.0621 -1.45365 1.82399
upperneck 27.1872 -5.2909 5.06216
head 12.691 -1.79278 0.656863
rclavicle -1.03989e-014 -3.71727e-014
rhumerus -21.1634 16.4595 -84.4739
rradius 66.3054
rwrist -8.3661
rhand -11.5121 -29.1068
rfingers 7.12502
rthumb 14.5272 -58.5782
lclavicle -1.03989e-014 -3.71727e-014
lhumerus -49.3739 1.7476 87.8966
lradius 20.1376
lwrist -26.6989
lhand 1.66718 -26.295
lfingers 7.12502
lthumb 27.1863 1.76635
rfemur 15.8479 4.83514 32.4448
rtibia 10.1368
rfoot -18.5225 13.089
rtoes 29.2839
lfemur -18.1559 -11.1447 2.05857
ltibia 5.95943
lfoot -10.7949 -2.77327
ltoes -19.5595
1615
root -25.2449 16.5061 8.17153 536.212 -11.0667 543.727
lowerback 6.50786 4.34666 5.44716
upperback 1.76102 6.04091 1.26272
thorax -1.38307 2.95458 -2.16507
lowerneck -21.2283 -1.50501 1.96547
upperneck 27.2328 -5.2969 4.69749
head 12.7246 -1.82148 0.491831
rclavicle 4.99074e-014 2.56432e-014
rhumerus -21.4735 16.0022 -84.5719
rradius 66.1173
rwrist -8.79871
rhand -12.8111 -29.1594
rfingers 7.12502
rthumb 13.2753 -58.7166
lclavicle 4.99074e-014 2.56432e-014
lhumerus -49.1808 1.33188 88.1065
lradius 20.0046
lwrist -27.3149
lhand 1.72572 -26.6156
lfingers 7.12502
lthumb 27.2422 1.43698
rfemur 15.8479 4.83514 32.4448
rtibia 10.1368
rfoot -18.5225 13.089
rtoes 29.2839
lfemur -18.1148 -10.7641 1.97632
ltibia 6.61924
lfoot -10.7473 -3.84272
ltoes -19.7602
1616
root -25.3541 16.4795 8.05324 536.095 -10.4076 543.831
lowerback 6.59297 4.29757 5.6598
upperback 1.82072 5.98546 1.28588
thorax -1.35258 2.92525 -2.25816
lowerneck -20.7817 -1.51302 1.53782
upperneck 26.4192 -5.22636 5.30494
head 12.3395 -1.774 0.810947
rclavicle 2.09469e-014 2.20651e-014
rhumerus -21.5019 15.2979 -84.7042
rradius 65.6375
rwrist -8.58924
rhand -13.4693 -29.1158
rfingers 7.12502
rthumb 12.6408 -58.7133
lclavicle 2.09469e-014 2.20651e-014
lhumerus -48.9256 1.08343 88.2824
lradius 19.9043
lwrist -27.8392
lhand 1.8682 -26.7756
lfingers 7.12502
lthumb 27.3785 1.25555
rfemur 15.8479 4.83514 32.4448
rtibia 10.1368
rfoot -18.5225 13.089
rtoes 29.2839
lfemur -17.9932 -10.9731 1.66598
ltibia 7.35065
lfoot -10.8493 -4.37784
ltoes -20.1996
1617
root -25.463 16.4584 7.93119 536.185 -9.69781 543.831
lowerback 6.41483 4.22521 5.74692
upperback 1.86871 5.87723 1.30344
thorax -1.20519 2.8752 -2.26382
lowerneck -20.809 -1.50899 1.42442
upperneck 26.2681 -5.1272 5.22882
head 12.281 -1.74941 0.818153
rclavicle 4.57577e-014 -2.94201e-014
rhumerus -21.7937 15.4397 -84.6776
rradius 65.1779
rwrist -8.78829
rhand -14.3836 -28.2845
rfingers 7.12502
rthumb 11.7592 -57.9344
lclavicle 4.57577e-014 -2.94201e-014
lhumerus -48.6473 0.995137 88.404
lradius 19.8289
lwrist -28.2666
lhand 1.94353 -26.8174
lfingers 7.12502
lthumb 27.4506 1.20239
rfemur 15.8479 4.83514 32.4448
rtibia 10.1368
rfoot -18.5225 13.089
rtoes 29.2839
lfemur -18.0139 -11.3133 1.23544
ltibia 8.31461
lfoot -10.9809 -4.72559
ltoes -21.6787
1618
root -25.5658 16.4358 7.8098 536.192 -8.95961 544.103
lowerback 6.27527 4.17778 6.00964
upperback 1.92699 5.80966 1.42271
thorax -1.05796 2.84238 -2.26657
lowerneck -20.9646 -1.44458 1.54167
upperneck 26.2913 -4.95843 4.87966
head 12.3008 -1.69978 0.694718
rclavicle -2.19906e-015 -9.93923e-016
rhumerus -21.7403 14.9176 -84.7067
rradius 64.4896
rwrist -8.54852
rhand -13.7802 -29.0295
rfingers 7.12502
rthumb 12.3411 -58.6453
lclavicle -2.19906e-015 -9.93923e-016
lhumerus -48.2642 0.819276 88.5472
lradius 19.7366
lwrist -28.5347
lhand 2.02045 -26.6997
lfingers 7.12502
lthumb 27.5241 1.30834
rfemur 19.3728 7.56663 29.6543
rtibia 12.7787
rfoot -21.0791 16.4223
rtoes 26.551
lfemur -17.9623 -11.7498 1.18817
ltibia 9.28324
lfoot -10.8374 -5.30998
ltoes -23.2667
